<svg xmlns="http://www.w3.org/2000/svg" viewBox="0 0 37.8 43.08"><defs><style>.cls-1{fill:#01dbb9;}</style></defs><g id="Layer_2" data-name="Layer 2"><g id="Layer_3" data-name="Layer 3"><path class="cls-1" d="M0,35.44H1.28v5.92H0Zm.75,4.9H2.06a1.11,1.11,0,0,0,.71-.2A.64.64,0,0,0,3,39.59V37.2a.64.64,0,0,0-.25-.55,1.11,1.11,0,0,0-.71-.19H.75v-1H2.11a3.08,3.08,0,0,1,1.2.2,1.6,1.6,0,0,1,.77.59,1.66,1.66,0,0,1,.26.93v2.47a1.57,1.57,0,0,1-1,1.52,3.23,3.23,0,0,1-1.23.21H.75Zm5,.9a1.27,1.27,0,0,1-.64-.51,1.4,1.4,0,0,1-.22-.81V38.54a1.33,1.33,0,0,1,.86-1.31,2.73,2.73,0,0,1,1-.17,2.77,2.77,0,0,1,1,.17,1.43,1.43,0,0,1,.64.51,1.47,1.47,0,0,1,.22.8v1.4a1.47,1.47,0,0,1-.22.8,1.35,1.35,0,0,1-.64.5,2.57,2.57,0,0,1-1,.18A2.53,2.53,0,0,1,5.7,41.24Zm1.44-1a.5.5,0,0,0,.16-.39V38.58a.47.47,0,0,0-.16-.39.62.62,0,0,0-.43-.14.64.64,0,0,0-.44.14.5.5,0,0,0-.15.39V39.9a.5.5,0,0,0,.15.39.64.64,0,0,0,.44.14A.62.62,0,0,0,7.14,40.29Zm2.76,1A1.43,1.43,0,0,1,9,39.86V38.65a1.5,1.5,0,0,1,.24-.86,1.35,1.35,0,0,1,.67-.54A2.8,2.8,0,0,1,11,37.07a3,3,0,0,1,.9.12,1.23,1.23,0,0,1,.59.39,1.25,1.25,0,0,1,.29.66l-1.18.33a.66.66,0,0,0-.21-.39.6.6,0,0,0-.4-.13.69.69,0,0,0-.49.17.6.6,0,0,0-.18.47v1.12a.59.59,0,0,0,.18.46.67.67,0,0,0,.49.16.61.61,0,0,0,.39-.12.68.68,0,0,0,.22-.37l1.19.34a1.32,1.32,0,0,1-.3.64,1.29,1.29,0,0,1-.59.38,3,3,0,0,1-.9.12A2.8,2.8,0,0,1,9.9,41.24Zm4.07,0a2,2,0,0,1-.75-.44,1.62,1.62,0,0,1-.42-.73L14,39.66a1.12,1.12,0,0,0,.43.54,1.3,1.3,0,0,0,.7.18,1.24,1.24,0,0,0,.66-.15A.49.49,0,0,0,16,39.8v-.26a.42.42,0,0,0-.14-.33.9.9,0,0,0-.36-.21l-.58-.16h-.11a8,8,0,0,1-1-.3,1.77,1.77,0,0,1-.64-.48,1.39,1.39,0,0,1-.26-.87V37a1.52,1.52,0,0,1,.26-.88,1.54,1.54,0,0,1,.75-.55,3.28,3.28,0,0,1,1.2-.19,2.7,2.7,0,0,1,.94.14,1.63,1.63,0,0,1,.68.42,1.8,1.8,0,0,1,.41.7l-1.14.44a1.28,1.28,0,0,0-.39-.51,1,1,0,0,0-.57-.17,1.24,1.24,0,0,0-.64.14.45.45,0,0,0-.22.4v.2a.44.44,0,0,0,.15.35,1,1,0,0,0,.36.22l.6.18.07,0h.15a7.62,7.62,0,0,1,.89.3,1.58,1.58,0,0,1,.59.47,1.34,1.34,0,0,1,.24.83v.25a1.44,1.44,0,0,1-.27.88,1.68,1.68,0,0,1-.77.56,3.68,3.68,0,0,1-1.22.19A3.5,3.5,0,0,1,14,41.27Zm3.85-4.14h1.29v5.95H17.82Zm1.65,4.1a1.16,1.16,0,0,1-.43-.54l.07-.77a.65.65,0,0,0,.06.29.48.48,0,0,0,.2.17.63.63,0,0,0,.32.07.58.58,0,0,0,.43-.16.65.65,0,0,0,.16-.45v-1.2a.61.61,0,0,0-.16-.44.55.55,0,0,0-.43-.17.63.63,0,0,0-.32.07.44.44,0,0,0-.2.18.61.61,0,0,0-.06.28L19,37.83a1.64,1.64,0,0,1,.5-.57,1.23,1.23,0,0,1,.68-.2,1.45,1.45,0,0,1,.74.18,1.11,1.11,0,0,1,.47.51,2,2,0,0,1,.16.82v1.34a2,2,0,0,1-.16.82,1.18,1.18,0,0,1-.48.51,1.45,1.45,0,0,1-.74.18A1.25,1.25,0,0,1,19.47,41.23Zm2.82-.13a1.38,1.38,0,0,1,.09-1.93,2.2,2.2,0,0,1,1.32-.33h.83l.06.82h-.86a.7.7,0,0,0-.46.13.44.44,0,0,0-.15.37.33.33,0,0,0,.14.29.74.74,0,0,0,.43.1,1.31,1.31,0,0,0,.6-.11.35.35,0,0,0,.21-.33l.09.49a.71.71,0,0,1-.19.45,1.15,1.15,0,0,1-.44.28,2,2,0,0,1-.62.09A1.52,1.52,0,0,1,22.29,41.1Zm2.21-2.6a.4.4,0,0,0-.18-.35.75.75,0,0,0-.49-.13,1,1,0,0,0-.42.09.76.76,0,0,0-.3.23l-1-.33a1.3,1.3,0,0,1,.61-.7,2.28,2.28,0,0,1,1.13-.25,2.7,2.7,0,0,1,1,.17,1.42,1.42,0,0,1,.63.49,1.33,1.33,0,0,1,.21.76v2.88H24.5Zm2.61,2.74a1.52,1.52,0,0,1-.67-.54,1.45,1.45,0,0,1-.23-.84V38.65a1.5,1.5,0,0,1,.23-.86,1.39,1.39,0,0,1,.67-.54,2.8,2.8,0,0,1,1.06-.18,3,3,0,0,1,.9.12,1.23,1.23,0,0,1,.59.39,1.25,1.25,0,0,1,.29.66l-1.18.33a.66.66,0,0,0-.21-.39.58.58,0,0,0-.4-.13.69.69,0,0,0-.49.17.6.6,0,0,0-.18.47v1.12a.59.59,0,0,0,.18.46.67.67,0,0,0,.49.16.65.65,0,0,0,.4-.12.67.67,0,0,0,.21-.37l1.19.34a1.32,1.32,0,0,1-.3.64,1.29,1.29,0,0,1-.59.38,3,3,0,0,1-.9.12A2.8,2.8,0,0,1,27.11,41.24Zm3.92,0a1.47,1.47,0,0,1-.67-.55,1.5,1.5,0,0,1-.24-.86V38.74a1.76,1.76,0,0,1,.23-.91,1.51,1.51,0,0,1,.65-.57,2.51,2.51,0,0,1,1-.19,2.25,2.25,0,0,1,1,.21,1.44,1.44,0,0,1,.64.63,2.2,2.2,0,0,1,.22,1v.75H31.06V38.9H32.7v-.3a.5.5,0,0,0-.19-.42A.67.67,0,0,0,32,38a.73.73,0,0,0-.52.18.65.65,0,0,0-.19.49v1.15a.6.6,0,0,0,.2.48.77.77,0,0,0,.54.16.76.76,0,0,0,.44-.11.64.64,0,0,0,.26-.32l1.08.34a1.26,1.26,0,0,1-.6.77,2.28,2.28,0,0,1-1.15.26A2.66,2.66,0,0,1,31,41.23Zm6.77-2.45v1H34.24v-1Zm-1.18,2.15H35.4v-3.3h1.22ZM31.13,7l0,0Zm-2.56,9.75,1.12-3.64a.53.53,0,0,1,.45-.37.5.5,0,0,1,.52.27l1.23,2.21H37.8V13.76a1,1,0,0,0-1-.95H31.6v-5a.91.91,0,0,0-.13-.46l-3.84,6.48Zm2.84-9.49,0,0ZM31,6.94h0Zm.32.19,0,0Zm-.47-.23h0Zm.35,8.94L30.3,14.3l-1.21,3.95a.53.53,0,0,1-.51.38h0a.53.53,0,0,1-.5-.37L27,14.92l-2.15,3.62h.75v5a1,1,0,0,0,1,1h4a1,1,0,0,0,1-1v-5H36.8a1,1,0,0,0,1-.95V16.17H31.72A.63.63,0,0,1,31.16,15.84Zm.31-8.47,0-.06,0,.06ZM31,6.94l-.15,0Zm.17.08L31,7Zm-.54-.15.18,0Zm.71.29a.63.63,0,0,1,.11.12A.63.63,0,0,0,31.3,7.16Zm-.13-.11.11.08Zm-4.78,6a.53.53,0,0,1,.52-.29.53.53,0,0,1,.46.37l.25.76,3.84-6.48,0-.06,0,0a.63.63,0,0,0-.11-.12l0,0-.11-.08,0,0L31,7h0l-.15,0h0l-.18,0h-4a1,1,0,0,0-1,1v5H20.37a1,1,0,0,0-1,.95V15.2h5.92Zm0,0a.53.53,0,0,1,.52-.29.53.53,0,0,1,.46.37l.25.76,3.84-6.48,0-.06,0,0a.63.63,0,0,0-.11-.12l0,0-.11-.08,0,0L31,7h0l-.15,0h0l-.18,0h-4a1,1,0,0,0-1,1v5H20.37a1,1,0,0,0-1,.95V15.2h5.92Zm.39,1.29L26,15.78a.64.64,0,0,1-.58.35H19.37v1.46a1,1,0,0,0,1,.95h4.46L27,14.92Zm0,0L26,15.78a.64.64,0,0,1-.58.35H19.37v1.46a1,1,0,0,0,1,.95h4.46L27,14.92Zm-6.94,5.3a1.35,1.35,0,0,1-1.37-1.31v-.4s0-.07,0-.1V13.56s0-.06,0-.1v-.4a1.35,1.35,0,0,1,1.37-1.31h2.35V9a8.63,8.63,0,0,0-1.33-4.88A8.3,8.3,0,0,0,17,1.06,15.75,15.75,0,0,0,10.88,0H0V31.35H10.85A15.91,15.91,0,0,0,17,30.28a8.24,8.24,0,0,0,3.86-3.1,8.7,8.7,0,0,0,1.32-4.84V19.6Zm-3.65,2.69a3.9,3.9,0,0,1-1.4,3.22,6.22,6.22,0,0,1-4,1.12h-5V4.72h5a6.22,6.22,0,0,1,4,1.12,3.9,3.9,0,0,1,1.4,3.22Z"/></g></g></svg>