<?xml version="1.0" encoding="UTF-8"?>
<svg width="26px" height="26px" viewBox="0 0 26 26" version="1.1" xmlns="http://www.w3.org/2000/svg" xmlns:xlink="http://www.w3.org/1999/xlink">
    <!-- Generator: Sketch 56.3 (81716) - https://sketch.com -->
    <title>Group 10 Copy 3</title>
    <desc>Created with Sketch.</desc>
    <g id="Page-1" stroke="none" stroke-width="1" fill="none" fill-rule="evenodd">
        <g id="Admin_Add-event_live-events" transform="translate(-1324.000000, -753.000000)">
            <g id="Group-12" transform="translate(300.000000, 659.000000)">
                <g id="Group-10-Copy-3" transform="translate(1024.000000, 94.000000)">
                    <path d="M12.5276484,0.5 C5.8849616,0.5 0.5,5.8849616 0.5,12.5276484 C0.5,19.1703351 5.8849616,24.5552967 12.5276484,24.5552967 C19.1703351,24.5552967 24.5552967,19.1703351 24.5552967,12.5276484 C24.5552967,5.8849616 19.1703351,0.5 12.5276484,0.5 Z" id="Rectangle-Copy" stroke="#939393" fill="#143541"></path>
                    <g id="icon/simple/settings" transform="translate(6.000000, 6.500000)" fill="#939393" fill-rule="nonzero">
                        <path d="M5.40778219,0 C4.97673106,0 4.62144652,0.355284544 4.62144652,0.786335676 L4.62144652,1.04844757 L2.44264142,1.04844757 C2.11909705,1.04844757 1.83650766,1.27062829 1.73002471,1.57267135 C1.16382213,1.59110123 0.707173939,2.05696396 0.689768137,2.63750091 C0.698982943,2.77470024 0.812633086,2.88323081 0.951880029,2.88323081 L11.9605795,2.88323081 C12.0998264,2.88323081 12.2145004,2.77470024 12.2226914,2.63750091 C12.2052856,2.05696396 11.7486374,1.59110123 11.1824348,1.57267135 C11.0759519,1.27062829 10.7933625,1.04844757 10.4698181,1.04844757 L8.29101301,1.04844757 L8.29101301,0.786335676 C8.29101301,0.355284544 7.93572846,0 7.50467733,0 L5.40778219,0 Z M5.40778219,0.524223784 L7.50467733,0.524223784 C7.65006765,0.524223784 7.76678922,0.640945617 7.76678922,0.786335676 L7.76678922,1.04844757 L5.1456703,1.04844757 L5.1456703,0.786335676 C5.1456703,0.640945617 5.26239214,0.524223784 5.40778219,0.524223784 Z M1.28771089,3.4074546 L2.58188836,12.253731 C2.65253564,12.7482624 3.06822885,13.1055946 3.57299895,13.1055946 L9.33946058,13.1055946 C9.82477726,13.1055946 10.2199927,12.7707876 10.3305712,12.253731 L11.6247486,3.4074546 L1.28771089,3.4074546 Z M3.12249414,4.27570024 C3.26583658,4.25829444 3.39791633,4.35351471 3.41737001,4.49685715 L4.27742466,11.0250815 C4.29585453,11.1684239 4.19961019,11.3015277 4.05626775,11.3199573 C4.04500506,11.3220052 4.02657545,11.3199573 4.01531277,11.3199573 C3.8863047,11.3199573 3.77879767,11.2308802 3.76139187,11.0988004 L2.89314623,4.57057612 C2.87369255,4.42723368 2.97915169,4.29515392 3.12249414,4.27570024 Z M5.34225422,4.27570024 C5.48047735,4.26853305 5.61460499,4.37604008 5.62074811,4.52143014 L5.90743299,11.0496544 C5.91357637,11.1940207 5.79787834,11.3138142 5.65351209,11.3199573 C5.64941659,11.3199573 5.64941659,11.3199573 5.6453211,11.3199573 C5.50607415,11.3199573 5.38935258,11.2144982 5.3832092,11.0742274 L5.09652432,4.54600313 C5.09038121,4.40163688 5.19788797,4.28184362 5.34225422,4.27570024 Z M7.5702053,4.27563422 C7.71457155,4.28184362 7.82207858,4.40163688 7.8159352,4.54600313 L7.52925032,11.0742274 C7.5231072,11.2144982 7.40638537,11.3199573 7.26713843,11.3199573 C7.26304293,11.3199573 7.26304293,11.3199573 7.25894743,11.3199573 C7.11458118,11.3138142 6.99888342,11.1940207 7.00502654,11.0496544 L7.29171142,4.52143014 C7.2978548,4.37706389 7.42788667,4.27262855 7.5702053,4.27563422 Z M9.78996539,4.27570024 C9.93330783,4.29413011 10.038767,4.42723368 10.0193133,4.57057612 L9.15106765,11.0988004 C9.13366185,11.2308802 9.02615509,11.3199573 8.89714676,11.3199573 C8.88588407,11.3199573 8.86847827,11.3220052 8.85619177,11.3199573 C8.71284933,11.3015277 8.61558118,11.1684239 8.63503487,11.0250815 L9.49508951,4.49685715 C9.51351938,4.35351471 9.64559914,4.25727063 9.78996539,4.27570024 Z" id="Shape"></path>
                    </g>
                </g>
            </g>
        </g>
    </g>
</svg>