<?xml version="1.0" encoding="UTF-8"?>
<svg width="26px" height="26px" viewBox="0 0 26 26" version="1.1" xmlns="http://www.w3.org/2000/svg" xmlns:xlink="http://www.w3.org/1999/xlink">
    <!-- Generator: Sketch 56.3 (81716) - https://sketch.com -->
    <title>Group 11 Copy 2</title>
    <desc>Created with Sketch.</desc>
    <g id="Page-1" stroke="none" stroke-width="1" fill="none" fill-rule="evenodd">
        <g id="Admin_Add-event_live-events" transform="translate(-1283.000000, -821.000000)">
            <g id="Group-12" transform="translate(300.000000, 659.000000)">
                <g id="Group-11-Copy-2" transform="translate(983.000000, 162.000000)">
                    <path d="M12.5276484,0.5 C5.8849616,0.5 0.5,5.8849616 0.5,12.5276484 C0.5,19.1703351 5.8849616,24.5552967 12.5276484,24.5552967 C19.1703351,24.5552967 24.5552967,19.1703351 24.5552967,12.5276484 C24.5552967,5.8849616 19.1703351,0.5 12.5276484,0.5 Z" id="Rectangle" stroke="#5ACEB5" fill="#143541"></path>
                    <g id="icon/simple/settings" transform="translate(6.000000, 6.000000)" fill="#5ACEB5" fill-rule="nonzero">
                        <path d="M12.6992469,0.406211039 C12.4288122,0.135774815 12.0737971,0 11.7187823,0 C11.3637672,0 11.0087521,0.135774815 10.7383174,0.406211039 C10.7383174,0.406211039 10.7182854,0.425130674 10.6926886,0.451840446 C10.690463,0.454066117 10.6871242,0.455178953 10.6848982,0.45740491 L0.655445816,10.4858113 C0.620946137,10.5214243 0.595349372,10.5648275 0.581994575,10.6137954 L0.00996396778,12.7472386 C-0.0167456259,12.8451745 0.0110770812,12.9497876 0.0834154929,13.0221265 C0.137947509,13.0766592 0.210285921,13.1055946 0.284850274,13.1055946 C0.309334211,13.1055946 0.333817863,13.1022558 0.358301799,13.0955785 L2.49173052,12.5235441 C2.54069811,12.5101892 2.58410127,12.4845926 2.61971407,12.4489795 L12.6480534,2.42168596 C12.6513922,2.41834717 12.652505,2.41389554 12.6547309,2.41055703 C12.6803277,2.38496009 12.6981341,2.36715358 12.6981341,2.36715358 C13.2412292,1.82516773 13.2412292,0.947084056 12.6992469,0.406211039 Z M12.2963771,0.80908357 C12.6146665,1.12737487 12.6146665,1.64598975 12.2963771,1.96428105 C12.2017807,2.05776525 12.1216519,2.13900769 12.0526522,2.20800779 L10.8974622,1.05281031 C11.0287845,0.921487121 11.1411873,0.80908357 11.1411873,0.80908357 C11.2947673,0.654389404 11.500654,0.569808461 11.7187823,0.569808461 C11.9369107,0.569808461 12.1416842,0.65550224 12.2963771,0.80908357 Z M1.02715447,11.1546684 L1.95086111,12.0783812 L0.687720122,12.4178181 L1.02715447,11.1546684 Z" id="Shape"></path>
                    </g>
                </g>
            </g>
        </g>
    </g>
</svg>