<?xml version="1.0" encoding="UTF-8"?>
<svg width="37px" height="37px" viewBox="0 0 37 37" version="1.1" xmlns="http://www.w3.org/2000/svg" xmlns:xlink="http://www.w3.org/1999/xlink">
    <!-- Generator: Sketch 56.3 (81716) - https://sketch.com -->
    <title>Group 15</title>
    <desc>Created with Sketch.</desc>
    <g id="Page-1" stroke="none" stroke-width="1" fill="none" fill-rule="evenodd">
        <g id="Desktop-Copy" transform="translate(-92.000000, -2236.000000)">
            <g id="Group-19" transform="translate(34.000000, 2230.000000)">
                <g id="Group-15" transform="translate(58.000000, 6.000000)">
                    <circle id="Oval-Copy" fill="#04C5A7" cx="18.5" cy="18.5" r="18.5"></circle>
                    <path d="M25.98,10 L11.02,10 C10.45628,10 10,10.45628 10,11.02 L10,25.98 C10,26.54372 10.45628,27 11.02,27 L18.84,27 L18.84,21.56 L16.8,21.56 L16.8,18.84 L18.84,18.84 L18.84,16.8 C18.84,14.92252 20.36252,13.4 22.24,13.4 L24.28,13.4 L24.28,16.12 L22.92,16.12 C22.16928,16.12 21.56,16.72928 21.56,17.48 L21.56,18.84 L24.28,18.84 L23.94,21.56 L21.56,21.56 L21.56,27 L25.98,27 C26.54372,27 27,26.54372 27,25.98 L27,11.02 C27,10.45628 26.54372,10 25.98,10 Z" id="Stroke-87" stroke="#FFFFFF" stroke-linecap="round" stroke-linejoin="round"></path>
                </g>
            </g>
        </g>
    </g>
</svg>