<?xml version="1.0" encoding="UTF-8"?>
<svg width="26px" height="26px" viewBox="0 0 26 26" version="1.1" xmlns="http://www.w3.org/2000/svg" xmlns:xlink="http://www.w3.org/1999/xlink">
    <!-- Generator: Sketch 56.3 (81716) - https://sketch.com -->
    <title>Group 11 Copy 6</title>
    <desc>Created with Sketch.</desc>
    <g id="Page-1" stroke="none" stroke-width="1" fill="none" fill-rule="evenodd">
        <g id="Admin_Add-event_live-events" transform="translate(-1202.000000, -751.000000)">
            <g id="Group-12" transform="translate(300.000000, 659.000000)">
                <g id="Group-11-Copy-6" transform="translate(902.000000, 92.000000)">
                    <path d="M12.5276484,0.5 C5.8849616,0.5 0.5,5.8849616 0.5,12.5276484 C0.5,19.1703351 5.8849616,24.5552967 12.5276484,24.5552967 C19.1703351,24.5552967 24.5552967,19.1703351 24.5552967,12.5276484 C24.5552967,5.8849616 19.1703351,0.5 12.5276484,0.5 Z" id="Rectangle" stroke="#939393" fill="#143541"></path>
                    <g id="Group-18" transform="translate(6.000000, 7.000000)" fill="#939393">
                        <path d="M12,2.92984396 C11.8149017,3.6523488 11.3792881,4.18961427 10.882524,4.6980524 C10.0451281,5.55526959 9.23804545,6.44566989 8.40716125,7.31025231 C7.60060256,8.14941281 6.28156175,8.23074708 5.37822499,7.51101409 C5.28002483,7.43268928 5.18085164,7.3457321 5.10944695,7.24174779 C4.95032076,7.01002038 4.96304487,6.77457076 5.15854703,6.56850284 C5.34633988,6.37059211 5.56773934,6.35459453 5.75598128,6.54141782 C6.5468968,7.32585391 7.39971137,7.02799787 8.00111254,6.34889242 C8.82301501,5.42071564 9.69012548,4.53728458 10.5428652,3.64015262 C10.9609644,3.2003774 11.1624544,2.69059293 10.9935231,2.07421069 C10.7016171,1.00886649 9.51198799,0.654306131 8.73409596,1.40943971 C8.25035535,1.87891343 7.80089498,2.38806433 7.33586629,2.87915854 C7.265734,2.95328597 7.19852078,3.0312148 7.12329885,3.09916495 C6.90377058,3.29747166 6.66433283,3.32130965 6.45827714,3.10257037 C6.25529021,2.88691975 6.25064965,2.61606953 6.45288811,2.398439 C7.03512828,1.77207806 7.59154599,1.10833663 8.23209251,0.555548756 C9.51677824,-0.553274033 11.3808599,0.0763339358 11.9023986,1.74697294 C11.9279217,1.82878238 11.9672167,1.90576086 12,1.98503603 L12,2.92984396 Z" id="Fill-1"></path>
                        <path d="M2.00647692,11.9999918 C1.58716923,11.7622776 1.1044,11.5997469 0.760630769,11.2724816 C-0.224676923,10.3346857 -0.250215385,8.73256327 0.669323077,7.72186939 C1.57132308,6.73044082 2.48878462,5.75419592 3.42001538,4.79386939 C4.34486154,3.84023673 5.69209231,3.80668571 6.67724615,4.67852245 C6.97024615,4.93786939 7.02709231,5.2281551 6.83486154,5.48366531 C6.64893846,5.73076735 6.36224615,5.73084898 6.0624,5.48399184 C5.36716923,4.91182857 4.67855385,4.93974694 4.04678462,5.59550204 C3.18216923,6.49313469 2.32563077,7.39966531 1.47693846,8.31435918 C0.838707692,9.00195102 0.827246154,9.92742041 1.42770769,10.5497878 C2.00516923,11.1484 2.86693846,11.1040735 3.50432308,10.4374612 C3.90332308,10.0201551 4.29232308,9.59207347 4.69278462,9.1764 C4.9784,8.8799102 5.24001538,8.85778776 5.45586154,9.11109388 C5.69324615,9.38970612 5.61555385,9.65942041 5.39255385,9.89778776 C4.93501538,10.3866857 4.50047692,10.9073388 3.99916923,11.3400735 C3.66655385,11.6272571 3.23463077,11.7845633 2.84716923,11.9999918 L2.00647692,11.9999918 Z" id="Fill-3"></path>
                        <path d="M12,7.73132954 C11.7994966,7.81712839 11.6031891,7.9504803 11.3973923,7.97746353 C11.0806924,8.01915067 10.7574081,7.99115068 10.4369641,7.98637973 C10.1740373,7.98246912 10.0004528,7.83136302 10,7.49888269 C9.99954901,7.16648057 10.1721007,7.01349738 10.4356085,7.01029068 C10.8094383,7.00575437 11.1848819,6.98471527 11.5563878,7.02038006 C11.7086051,7.03508397 11.852366,7.17938559 12,7.26479338 L12,7.73132954 Z" id="Fill-6"></path>
                        <path d="M7.26862267,12 C7.18288564,11.7990324 7.04958646,11.6022583 7.02251985,11.3960003 C6.98090297,11.0792909 7.00875186,10.7559362 7.0137584,10.4354848 C7.01790444,10.1722591 7.16989992,9.99948502 7.50244383,10 C7.83498773,10.0004528 7.98651385,10.1738075 7.98972117,10.4368396 C7.99425835,10.8106458 8.01530147,11.1862585 7.97955163,11.5578067 C7.96492314,11.7095486 7.82035924,11.8528388 7.73493512,12 L7.26862267,12 Z" id="Fill-8"></path>
                        <path d="M4,2.6550529 C3.87958333,2.7552704 3.7746167,2.90678501 3.60541536,2.9641559 C3.45550316,3.01492484 3.16363788,3.01472679 3.05595578,2.94441609 C2.39797138,2.51456354 1.76311523,2.06589546 1.1454882,1.60679631 C0.921977635,1.44062539 0.963833196,1.20467193 1.21730748,1.08854374 C1.3974643,1.00601945 1.78942711,0.963238851 1.91227833,1.04061363 C2.59179915,1.46881569 3.22066257,1.9372896 3.85804691,2.39810526 C3.92602708,2.44728974 3.93679529,2.53595384 4,2.6550529" id="Fill-10"></path>
                        <path d="M9.34109963,8 C9.49230105,8.12909365 9.61656729,8.19601045 9.7044645,8.31701832 C10.0840295,8.83971285 10.4542908,9.37634837 10.8252678,9.91168274 C11.0149853,10.185484 11.0763377,10.4880036 10.8766659,10.8043714 C10.704645,11.0766856 10.4784284,11.0678563 10.2537733,10.7580873 C9.86679133,10.2242399 9.47922382,9.68881263 9.12008791,9.11778931 C9.02516412,8.96685476 8.97643354,8.66266216 9.0112411,8.46674465 C9.04260043,8.2897869 9.21709364,8.16468967 9.34109963,8" id="Fill-12"></path>
                        <path d="M3.99067513,0.994041851 C3.99067513,1.2067143 4.00480527,1.42022633 3.98694414,1.63186545 C3.96686029,1.86953159 3.78634379,2.00134588 3.49707285,2 C3.20732561,1.99856881 3.02307811,1.86358994 3.01355218,1.62663421 C2.99688179,1.21220387 2.99513537,0.796740202 3.01085316,0.382374447 C3.01958527,0.151037456 3.18859126,0.00572527632 3.48413345,0.000171121878 C3.79888628,-0.00570594852 3.97035314,0.140122897 3.99138958,0.387799435 C4.00845688,0.589040659 3.99488242,0.791896463 3.99488242,0.994041851 C3.99345353,0.994041851 3.99210402,0.994041851 3.99067513,0.994041851" id="Fill-14"></path>
                        <path d="M0.990265965,3.99445349 C0.78812552,3.99445349 0.585080354,4.0091363 0.384103121,3.99072327 C0.136468151,3.96802445 -0.00757630276,3.79373562 0.00030769159,3.47888872 C0.0076747027,3.18245484 0.154368696,3.01768999 0.385977185,3.00991207 C0.800468495,2.9958642 1.21586452,2.9963404 1.63022659,3.01395977 C1.86771576,3.02395994 2.00045121,3.21166171 2,3.50127007 C1.99948186,3.79103716 1.86545396,3.96858002 1.62822328,3.98754861 C1.4163894,4.00445367 1.20300457,3.9911201 0.990265965,3.9911201 L0.990265965,3.99445349 Z" id="Fill-16"></path>
                    </g>
                </g>
            </g>
        </g>
    </g>
</svg>