<?xml version="1.0" encoding="UTF-8"?>
<svg width="49px" height="49px" viewBox="0 0 49 49" version="1.1" xmlns="http://www.w3.org/2000/svg" xmlns:xlink="http://www.w3.org/1999/xlink">
    <!-- Generator: Sketch 56.3 (81716) - https://sketch.com -->
    <title>Group 3</title>
    <desc>Created with Sketch.</desc>
    <defs>
        <polygon id="path-1" points="0 0 49 0 49 49 0 49"></polygon>
    </defs>
    <g id="Page-1" stroke="none" stroke-width="1" fill="none" fill-rule="evenodd">
        <g id="Desktop-Copy-3" transform="translate(-540.000000, -199.000000)">
            <g id="Group-3" transform="translate(540.000000, 199.000000)">
                <mask id="mask-2" fill="white">
                    <use xlink:href="#path-1"></use>
                </mask>
                <g id="Clip-2"></g>
                <path d="M24.465639,21.4411969 C27.8215734,21.4521869 30.6115044,18.6922296 30.6196745,15.3532315 C30.6279034,11.9893119 27.8851553,9.21229292 24.536797,9.19408818 C21.1848903,9.17615679 18.3869996,11.9047705 18.3703266,15.2079201 C18.3531468,18.6639533 21.0579183,21.4299493 24.465639,21.4411969 M24.3938096,45.9542126 C29.3484018,45.9219105 33.7233727,44.4048637 37.604553,41.4589539 C37.8189861,41.2962934 37.9944836,40.9912929 38.0490509,40.7241539 C38.3723307,39.1443242 38.3327239,37.5523213 38.0573942,35.9719165 C36.7404915,28.4115083 29.587673,23.5520128 22.3897814,24.663127 C14.79937,25.8348197 9.48850825,33.2212568 10.9424524,40.7632614 C10.9908821,41.0146807 11.1709828,41.2979229 11.3755381,41.4535862 C15.23984,44.3944159 19.5976447,45.9130921 24.3938096,45.9542126 M41.3286487,37.689006 C47.6649722,29.9741805 47.8707742,17.1701986 39.1806742,8.92253287 C30.5947219,0.773498688 16.8103989,1.06287533 8.5905939,10.1441643 C0.534490678,19.0445809 2.18387964,31.15958 7.59984808,37.6179798 C8.22243272,30.3528911 11.9229369,25.310031 18.6152422,22.4318884 C14.2608899,18.8232591 14.3222661,12.2981464 18.1059158,8.70360731 C21.6068515,5.37764501 27.135311,5.30364741 30.6949377,8.5371127 C34.2044085,11.7251442 35.194483,18.3010583 30.3270642,22.4609315 C33.5003087,23.7043213 36.1336345,25.6446497 38.1356488,28.3955969 C40.1364164,31.1445313 41.1679198,34.2425579 41.3286487,37.689006 M25.931283,49 L23.059549,49 C22.9361253,48.9737366 22.8137566,48.9331913 22.6889903,48.9233185 C17.1144028,48.4794288 12.1853201,46.4562844 8.0802126,42.6629486 C1.7991277,36.8590251 -0.864598542,29.6086976 0.245351327,21.1551421 C1.25297559,13.480862 5.26956712,7.59067183 11.8522584,3.53786518 C16.8245921,0.476358046 22.2761396,-0.555390945 28.0528849,0.276890408 C32.8611333,0.969611512 37.0973364,2.94166686 40.7295596,6.1800206 C45.1710853,10.1399468 47.8342362,15.0657719 48.7218892,20.9476229 C48.8377367,21.7148209 48.9083193,22.4889202 49,23.2598564 L49,25.9391065 C48.9732438,26.0619885 48.9313354,26.1838162 48.9220331,26.3079443 C48.6198513,30.336788 47.4211937,34.080185 45.2500113,37.4853209 C41.349555,43.602584 35.799422,47.301985 28.6684688,48.6240692 C27.7638415,48.7918098 26.843966,48.8767346 25.931283,49" id="Fill-1" fill="#FFFFFF" mask="url(#mask-2)"></path>
            </g>
        </g>
    </g>
</svg>