<?xml version="1.0" encoding="UTF-8"?>
<svg width="20px" height="20px" viewBox="0 0 20 20" version="1.1" xmlns="http://www.w3.org/2000/svg" xmlns:xlink="http://www.w3.org/1999/xlink">
    <!-- Generator: Sketch 56.3 (81716) - https://sketch.com -->
    <title>Icon Search</title>
    <desc>Created with Sketch.</desc>
    <defs>
        <path d="M11.7332435,10.4279836 L9.25969033,7.9545002 C9.85579419,7.09397805 10.1539977,6.13466813 10.1539977,5.0770756 C10.1539977,4.38957731 10.020531,3.7320614 9.75359774,3.10467943 C9.48684126,2.47719642 9.12622369,1.93635164 8.67189657,1.48201878 C8.21756945,1.02768592 7.67680728,0.667063794 7.04945849,0.40027869 C6.42190763,0.133417811 5.76445055,0 5.07696094,0 C4.38952186,0 3.73201426,0.133417811 3.10464021,0.40027869 C2.47716513,0.667063794 1.93632718,1.02768592 1.48200006,1.48201878 C1.02762242,1.93635164 0.667055366,2.47729746 0.400248375,3.10467943 C0.133416125,3.73213718 0,4.38957731 0,5.0770756 C0,5.76452337 0.133416125,6.42181195 0.400248375,7.04937074 C0.667030108,7.67675271 1.02762242,8.21752172 1.48200006,8.67185458 C1.93632718,9.12633899 2.47726616,9.48680956 3.10464021,9.75374622 C3.73209003,10.0205566 4.38952186,10.1539491 5.07696094,10.1539491 C6.13476744,10.1539491 7.09391369,9.85571663 7.95447548,9.25965576 L10.4280286,11.7259656 C10.6011008,11.9086131 10.8171632,12 11.0769988,12 C11.3269835,12 11.5434501,11.9086384 11.7259942,11.7259656 C11.9086142,11.5433433 12,11.3269751 12,11.0769872 C12,10.8223264 11.9111401,10.6058824 11.7332435,10.4279836 Z M7.35943249,7.3593234 C6.72723405,7.99163087 5.96646913,8.30777197 5.07696094,8.30777197 C4.18760431,8.30777197 3.42683939,7.99155509 2.79459043,7.3593234 C2.16234147,6.72711696 1.84622961,5.96644348 1.84622961,5.07692405 C1.84622961,4.18755617 2.16241724,3.42665536 2.79459043,2.7945247 C3.4267131,2.16224249 4.18760431,1.8461519 5.07696094,1.8461519 C5.9663681,1.8461519 6.72713301,2.16236878 7.35943249,2.7945247 C7.99173197,3.42665536 8.30784383,4.18755617 8.30784383,5.07692405 C8.30784383,5.96644348 7.99163094,6.72711696 7.35943249,7.3593234 Z" id="path-1"></path>
        <filter x="-58.3%" y="-41.7%" width="216.7%" height="216.7%" filterUnits="objectBoundingBox" id="filter-2">
            <feOffset dx="0" dy="2" in="SourceAlpha" result="shadowOffsetOuter1"></feOffset>
            <feGaussianBlur stdDeviation="2" in="shadowOffsetOuter1" result="shadowBlurOuter1"></feGaussianBlur>
            <feColorMatrix values="0 0 0 0 0   0 0 0 0 0   0 0 0 0 0  0 0 0 0.202933785 0" type="matrix" in="shadowBlurOuter1"></feColorMatrix>
        </filter>
    </defs>
    <g id="Page-1" stroke="none" stroke-width="1" fill="none" fill-rule="evenodd">
        <g id="Desktop_Home" transform="translate(-1065.000000, -45.000000)">
            <g id="Icon-Search" transform="translate(1069.000000, 47.000000)">
                <g id="Shape">
                    <use fill="black" fill-opacity="1" filter="url(#filter-2)" xlink:href="#path-1"></use>
                    <use fill="#5ACEB5" fill-rule="evenodd" xlink:href="#path-1"></use>
                </g>
            </g>
        </g>
    </g>
</svg>