<?xml version="1.0" encoding="UTF-8"?>
<svg width="82px" height="82px" viewBox="0 0 82 82" version="1.1" xmlns="http://www.w3.org/2000/svg" xmlns:xlink="http://www.w3.org/1999/xlink">
    <!-- Generator: Sketch 56.3 (81716) - https://sketch.com -->
    <title>Group 17</title>
    <desc>Created with Sketch.</desc>
    <g id="Page-1" stroke="none" stroke-width="1" fill="none" fill-rule="evenodd">
        <g id="Desktop-Copy-4" transform="translate(-651.000000, -320.000000)" fill="#60D0B8">
            <g id="Group-17" transform="translate(651.000000, 320.793617)">
                <g id="Group-14" transform="translate(19.000000, 9.978723)">
                    <path d="M44.2857198,12.2505488 C47.8698333,8.68781531 51.4907041,5.16141414 55.0638453,1.5883775 C56.5708956,0.0808586291 58.1624329,-0.733093108 60.0310217,0.892099002 C61.5232594,2.18921596 61.2752846,4.20972507 59.4023069,6.05508001 C46.7374882,18.5322389 34.0627945,30.9996369 21.3672533,43.4458863 C19.376323,45.3969844 17.9444332,45.4024072 16.02208,43.3894899 C11.038445,38.171197 6.12174134,32.8900005 1.20229457,27.6120576 C-0.218074305,26.0882706 -0.545598529,24.3540816 1.12768268,22.8801836 C2.81248485,21.3959825 4.4934467,22.0038705 5.89406537,23.5059667 C10.1321301,28.0485874 14.3542849,32.6047649 18.9105474,37.5090817 C27.5386436,28.9200201 35.9066956,20.5798617 44.2857198,12.2505488 Z" id="Fill-4"></path>
                </g>
                <path d="M81.5539747,45.3419844 C80.8717347,47.9203325 80.331628,50.5453328 79.485388,53.0694341 C73.182868,71.8702732 54.8104947,83.1449181 35.0096813,80.4255284 C16.2841613,77.8536899 1.360708,62.2805325 0.105561333,43.9999198 C-1.251812,24.2399981 10.6190547,7.10995896 29.4304013,1.72108668 C31.567868,1.10809839 33.742508,0.621505031 35.9002013,0.0763251792 L41.878548,0.0763251792 C42.490268,1.42869669 43.6830947,2.82772041 43.5764947,4.12259037 C43.416868,6.07330355 41.4122413,6.1959012 39.7274147,6.22248211 C24.207548,6.46713496 9.73345467,18.0585808 6.84104133,33.9387748 C2.84709467,55.8647692 19.328548,73.210168 37.8895213,74.59563 C56.4734547,75.9827195 71.9812947,62.9206442 74.803188,46.3135437 C75.0431747,44.9036707 74.881908,43.402663 75.2744147,42.0492066 C75.7155747,40.5270428 76.223428,38.5812118 77.3703347,37.850508 C78.2007213,37.3216022 80.120068,38.4732607 81.5539747,38.8752292 L81.5539747,45.3419844 Z" id="Fill-1"></path>
            </g>
        </g>
    </g>
</svg>