<?xml version="1.0" encoding="UTF-8"?>
<svg width="37px" height="37px" viewBox="0 0 37 37" version="1.1" xmlns="http://www.w3.org/2000/svg" xmlns:xlink="http://www.w3.org/1999/xlink">
    <!-- Generator: Sketch 56.3 (81716) - https://sketch.com -->
    <title>Group 14</title>
    <desc>Created with Sketch.</desc>
    <g id="Page-1" stroke="none" stroke-width="1" fill="none" fill-rule="evenodd">
        <g id="Desktop-Copy" transform="translate(-148.000000, -2236.000000)">
            <g id="Group-19" transform="translate(34.000000, 2230.000000)">
                <g id="Group-14" transform="translate(114.000000, 6.000000)">
                    <circle id="Oval-Copy-2" fill="#04C5A7" cx="18.5" cy="18.5" r="18.5"></circle>
                    <path d="M24.3684211,24.7241379 L25,27.3448276 C25,27.3448276 23.2,28 21.0002105,28 L20.8947368,28 L20.5789474,28 C18.1372632,28 16.1578947,25.9466897 16.1578947,23.4137931 L16.1578947,16.862069 L13,16.862069 L13,13.5862069 C14.9667368,13.5862069 16.7894737,12.2784828 16.7894737,9 L19.9473684,9 L19.9473684,13.5862069 L23.1052632,13.5862069 L23.1052632,16.862069 L19.9473684,16.862069 L19.9473684,22.3425862 C19.9473684,22.6184138 19.9865263,22.892931 20.0629474,23.1569655 C20.5138947,24.7188966 22.1389474,25.5653793 23.6162105,25.0078276 L24.3684211,24.7241379 Z" id="Stroke-172" stroke="#FFFFFF" stroke-linecap="round" stroke-linejoin="round"></path>
                </g>
            </g>
        </g>
    </g>
</svg>